<svg width="88" height="88" viewBox="0 0 88 88" fill="none" xmlns="http://www.w3.org/2000/svg">
<path d="M79.0293 14.6664C78.6961 14.632 78.3603 14.632 78.0271 14.6664H9.58266C9.14399 14.6731 8.70823 14.7389 8.28711 14.8619L43.6093 50.0375L79.0293 14.6664Z" fill="#FFC158"/>
<path d="M82.6467 18.0645L47.0555 53.5089C46.1396 54.4194 44.9005 54.9305 43.6089 54.9305C42.3173 54.9305 41.0782 54.4194 40.1622 53.5089L4.88888 18.3333C4.78045 18.7319 4.72295 19.1426 4.71777 19.5556V68.4444C4.71777 69.7411 5.23285 70.9846 6.1497 71.9014C7.06654 72.8182 8.31005 73.3333 9.60666 73.3333H78.0511C79.3477 73.3333 80.5912 72.8182 81.5081 71.9014C82.4249 70.9846 82.94 69.7411 82.94 68.4444V19.5556C82.9205 19.0463 82.8216 18.5432 82.6467 18.0645ZM12.9556 68.4444H9.55777V64.9489L27.3289 47.3244L30.7755 50.7711L12.9556 68.4444ZM78.0022 68.4444H74.58L56.76 50.7711L60.2067 47.3244L77.9778 64.9489L78.0022 68.4444Z" fill="#FFC158"/>
</svg>
