<svg width="96" height="96" viewBox="0 0 96 96" fill="none" xmlns="http://www.w3.org/2000/svg">
<path d="M48.0004 35.5032C41.1192 35.5032 35.5036 41.1188 35.5036 48.0001C35.5036 54.8813 41.1192 60.4969 48.0004 60.4969C54.8817 60.4969 60.4973 54.8813 60.4973 48.0001C60.4973 41.1188 54.8817 35.5032 48.0004 35.5032ZM85.4817 48.0001C85.4817 42.8251 85.5286 37.6969 85.2379 32.5313C84.9473 26.5313 83.5786 21.2063 79.1911 16.8188C74.7942 12.4219 69.4786 11.0626 63.4786 10.7719C58.3036 10.4813 53.1754 10.5282 48.0098 10.5282C42.8348 10.5282 37.7067 10.4813 32.5411 10.7719C26.5411 11.0626 21.2161 12.4313 16.8286 16.8188C12.4317 21.2157 11.0723 26.5313 10.7817 32.5313C10.4911 37.7063 10.5379 42.8344 10.5379 48.0001C10.5379 53.1657 10.4911 58.3032 10.7817 63.4688C11.0723 69.4688 12.4411 74.7938 16.8286 79.1813C21.2254 83.5782 26.5411 84.9376 32.5411 85.2282C37.7161 85.5188 42.8442 85.472 48.0098 85.472C53.1848 85.472 58.3129 85.5188 63.4786 85.2282C69.4786 84.9376 74.8036 83.5688 79.1911 79.1813C83.5879 74.7844 84.9473 69.4688 85.2379 63.4688C85.5379 58.3032 85.4817 53.1751 85.4817 48.0001ZM48.0004 67.2282C37.3598 67.2282 28.7723 58.6407 28.7723 48.0001C28.7723 37.3594 37.3598 28.7719 48.0004 28.7719C58.6411 28.7719 67.2286 37.3594 67.2286 48.0001C67.2286 58.6407 58.6411 67.2282 48.0004 67.2282ZM68.0161 32.4751C65.5317 32.4751 63.5254 30.4688 63.5254 27.9844C63.5254 25.5001 65.5317 23.4938 68.0161 23.4938C70.5004 23.4938 72.5067 25.5001 72.5067 27.9844C72.5074 28.5744 72.3918 29.1586 72.1664 29.7038C71.941 30.249 71.6102 30.7443 71.1931 31.1614C70.7759 31.5786 70.2806 31.9093 69.7354 32.1347C69.1903 32.3602 68.606 32.4758 68.0161 32.4751Z" fill="#FFC158"/>
</svg>
