<svg width="74" height="74" viewBox="0 0 74 74" fill="none" xmlns="http://www.w3.org/2000/svg">
<g clip-path="url(#clip0_124_1760)">
<path fill-rule="evenodd" clip-rule="evenodd" d="M74 37C74 57.4332 57.4332 74 37 74C16.5667 74 0 57.4332 0 37C0 16.5667 16.5667 0 37 0C57.4332 0 74 16.5667 74 37ZM38.3258 27.3153C34.7276 28.8107 27.5342 31.9094 16.7487 36.6084C14.9973 37.3052 14.0785 37.9867 13.9952 38.6527C13.8534 39.7812 15.2656 40.2252 17.1834 40.8264C17.4455 40.9097 17.7168 40.9929 17.9943 41.0854C19.8844 41.699 22.4251 42.4174 23.7448 42.4452C24.9442 42.4698 26.2823 41.9765 27.7593 40.9652C37.8356 34.1603 43.0372 30.7223 43.364 30.6483C43.5952 30.5959 43.9159 30.5281 44.1317 30.7223C44.3476 30.9135 44.326 31.2773 44.3044 31.376C44.1626 31.9711 38.6311 37.1172 35.7636 39.7812C34.8694 40.6106 34.2373 41.1995 34.1078 41.3352C33.818 41.6343 33.522 41.921 33.2383 42.1954C31.4808 43.8851 30.1673 45.1554 33.3123 47.2274C34.8232 48.2233 36.0318 49.0466 37.2374 49.8667C38.554 50.764 39.8675 51.6582 41.5695 52.7743C42.0012 53.058 42.4143 53.3509 42.8182 53.6377C44.3507 54.7322 45.7289 55.7127 47.4309 55.5586C48.4176 55.4661 49.4412 54.538 49.9592 51.7661C51.1833 45.2109 53.5945 31.0152 54.1526 25.1631C54.1865 24.6772 54.1659 24.189 54.0909 23.7078C54.0461 23.319 53.8568 22.9614 53.5606 22.7057C53.1197 22.3449 52.4352 22.2678 52.1268 22.274C50.7362 22.2987 48.6026 23.0417 38.3258 27.3153Z" fill="#FFC158"/>
</g>
<defs>
<clipPath id="clip0_124_1760">
<rect width="74" height="74" fill="white"/>
</clipPath>
</defs>
</svg>
